<svg class="w-6 h-6 mr-3" xmlns="http://www.w3.org/2000/svg" viewBox="0 0 48 48">
    <path fill="#FFC107" d="M43.6 20H24v8.8h11.2c-1.2 6.1-6.5 10.5-12.8 10.5-7.7 0-14-6.2-14-14s6.3-14 14-14c3.1 0 5.9 1.1 8.1 2.9l6.4-6.4C34.6 4.1 29.9 2 24 2 11.8 2 2 11.8 2 24s9.8 22 22 22c11 0 20-8 20-22 0-1.3-.2-2.7-.4-4z"/>
    <path fill="#FF3D00" d="M6.3 14.1l6.6 4.8C14.9 15.9 19 14 24 14c3.1 0 5.9 1.1 8.1 2.9l6.4-6.4C34.6 4.1 29.9 2 24 2 16.3 2 9.7 6.6 6.3 14.1z"/>
    <path fill="#4CAF50" d="M24 44c6.3 0 11.6-2.6 15.4-6.8l-7.1-5.8c-2.1 1.4-4.8 2.3-8.3 2.3-6.3 0-11.6-4.4-12.8-10.5l-7.2 5.5c3.4 7.5 10 12.4 17.8 12.4z"/>
    <path fill="#1976D2" d="M43.6 20H24v8.8h11.2c-1.2 6.1-6.5 10.5-12.8 10.5-2.5 0-4.9-.6-7-1.8v7.1c3.4 2.4 7.7 3.9 12.8 3.9 11 0 20-8 20-22 0-1.3-.2-2.7-.4-4z"/>
  </svg>